# xmcd
#
# Track frame offsets: 
#        150
#        10747
#        26378
#        40012
#        55146
#        68239
#        83804
#        95453
#        108414
#        121301
#        132888
#        147672
#        158514
#        176532
#
# Disc length: 2538 seconds
#
# Revision: 0
# Processed by: cddbd v1.5.2PL0 Copyright (c) Steve Scherf et al.
# Submitted via: ExactAudioCopy v0.95b4
#
DISCID=ae09e80e
DTITLE=Johnny Loughrey - The World Of Johnny Loughrey
DYEAR=1900
DGENRE=Country
TTITLE0=Do You Know You Are My Sunshine
TTITLE1=Going Back To Ireland again
TTITLE2=Today I Started Loving You Again
TTITLE3=It Still Takes A Woman To Build You A Home
TTITLE4=Why Me Lord
TTITLE5=I Don't Remember Loving You
TTITLE6=Any Town In Ireland
TTITLE7=She Just Helps Me Get Over You
TTITLE8=I'll Go Somewhere And Cry Myself To Sleep
TTITLE9=Old Fashioned Girl
TTITLE10=Old Photographs
TTITLE11=Waltz Across Ireland
TTITLE12=Bridie's Dream
TTITLE13=I Had A Beautiful Time
EXTD=
EXTT0=
EXTT1=
EXTT2=
EXTT3=
EXTT4=
EXTT5=
EXTT6=
EXTT7=
EXTT8=
EXTT9=
EXTT10=
EXTT11=
EXTT12=
EXTT13=
PLAYORDER=
